Coordinates
version=1
nRows=7
nColumns=40
inDegrees=yes

Units are S.I. units (second, meters, Newtons, ...)
If the header above contains a line with 'inDegrees', this indicates whether rotational values are in degrees (yes) or radians (no).

endheader
time	pelvis_tilt	pelvis_list	pelvis_rotation	pelvis_tx	pelvis_ty	pelvis_tz	hip_flexion_r	hip_adduction_r	hip_rotation_r	knee_angle_r	knee_angle_r_beta	ankle_angle_r	subtalar_angle_r	mtp_angle_r	hip_flexion_l	hip_adduction_l	hip_rotation_l	knee_angle_l	knee_angle_l_beta	ankle_angle_l	subtalar_angle_l	mtp_angle_l	lumbar_extension	lumbar_bending	lumbar_rotation	arm_flex_r	arm_add_r	arm_rot_r	elbow_flex_r	pro_sup_r	wrist_flex_r	wrist_dev_r	arm_flex_l	arm_add_l	arm_rot_l	elbow_flex_l	pro_sup_l	wrist_flex_l	wrist_dev_l
      0.87000000	     -1.15432204	      4.19444072	    -89.81756940	      0.19691758	      0.89766055	      0.00825955	    -14.38484335	      3.04931256	      1.15095851	      0.68467465	      0.01194983	     16.57829411	      0.00000000	     -0.00000000	     33.70904002	     -3.64242612	      3.36151200	     10.66973553	      0.18622202	     -3.02611165	     -0.00000000	      0.00000000	     -4.93134316	      0.89354779	     -0.84701114	     -0.00000000	     -0.00000000	      0.00000000	      0.00000000	      0.00000000	     -0.00000000	      0.00000000	     -0.00000000	      0.00000000	     -0.00000000	      0.00000000	      0.00000000	      0.00000000	      0.00000000
      0.88000000	     -1.27625658	      4.22012698	    -89.81932191	      0.19811723	      0.89584069	      0.01894765	    -15.03908424	      3.08176600	      1.29612937	      0.86243457	      0.01505232	     16.93146007	     -0.00000000	      0.00000000	     33.42285020	     -3.55789468	      4.03358560	     10.09922488	      0.17626473	     -2.62436584	     -0.00000000	     -0.00000000	     -4.79078170	      0.95468494	     -0.65836351	      0.00000000	     -0.00000000	     -0.00000000	      0.00000000	      0.00000000	     -0.00000000	      0.00000000	      0.00000000	     -0.00000000	     -0.00000000	      0.00000000	      0.00000000	      0.00000000	      0.00000000
      0.89000000	     -1.38852651	      4.41967051	    -89.81574360	      0.19942053	      0.89377647	      0.02948628	    -15.38780097	      3.08732496	      1.17945130	      1.17163757	      0.02044893	     16.76428780	      0.00000000	      0.00000000	     33.59230475	     -3.47143496	      4.13757395	     10.26497244	      0.17915757	     -2.62572844	      0.00000000	      0.00000000	     -4.50737355	      1.00448562	     -0.71287568	      0.00000000	      0.00000000	      0.00000000	      0.00000000	      0.00000000	      0.00000000	      0.00000000	      0.00000000	      0.00000000	      0.00000000	      0.00000000	      0.00000000	      0.00000000	      0.00000000
      0.90000000	     -1.29398806	      4.30208507	    -89.82442200	      0.20088225	      0.89247254	      0.04056514	    -16.07245370	      2.86434022	      1.31605985	      1.66944530	      0.02913732	     17.24658993	      0.00000000	      0.00000000	     33.07446396	     -3.12630138	      4.68407667	     10.19192395	      0.17788263	     -1.84089346	      0.00000000	      0.00000000	     -4.47639741	      0.79231230	     -0.42651221	      0.00000000	      0.00000000	      0.00000000	      0.00000000	      0.00000000	      0.00000000	      0.00000000	      0.00000000	      0.00000000	      0.00000000	      0.00000000	      0.00000000	      0.00000000	      0.00000000
      0.91000000	     -1.31013904	      4.43241293	    -89.82400931	      0.20232294	      0.89088088	      0.05146987	    -16.38297147	      2.75365990	      1.33003105	      2.23954385	      0.03908741	     17.04239171	      0.00000000	      0.00000000	     33.05712144	     -2.90818428	      4.81540034	     10.65506787	      0.18596602	     -1.85935013	      0.00000000	      0.00000000	     -4.19727187	      0.71721599	     -0.40765920	      0.00000000	      0.00000000	      0.00000000	      0.00000000	      0.00000000	      0.00000000	      0.00000000	      0.00000000	      0.00000000	      0.00000000	      0.00000000	      0.00000000	      0.00000000	      0.00000000
      0.92000000	     -1.15392877	      4.39639617	    -89.83017673	      0.20386681	      0.88967593	      0.06264581	    -16.81997048	      2.44696871	      1.21592085	      2.97933443	      0.05199920	     17.34069309	      0.00000000	      0.00000000	     32.83431069	     -2.51703040	      4.70332877	     11.29361723	      0.19711081	     -1.72022496	      0.00000000	      0.00000000	     -4.10473662	      0.43252450	     -0.23162443	      0.00000000	      0.00000000	      0.00000000	      0.00000000	      0.00000000	      0.00000000	      0.00000000	      0.00000000	      0.00000000	      0.00000000	      0.00000000	      0.00000000	      0.00000000	      0.00000000
      0.93000000	     -1.10872008	      4.49568868	    -89.82943743	      0.20543239	      0.88847640	      0.07379643	    -17.03587855	      2.25503430	      1.29632271	      3.77685121	      0.06591849	     17.02406134	      0.00000000	      0.00000000	     32.77381501	     -2.21437049	      4.84313033	     12.04353949	      0.21019942	     -2.01059829	      0.00000000	      0.00000000	     -3.84615535	      0.28201939	     -0.22364491	      0.00000000	      0.00000000	      0.00000000	      0.00000000	      0.00000000	      0.00000000	      0.00000000	      0.00000000	      0.00000000	      0.00000000	      0.00000000	      0.00000000	      0.00000000	      0.00000000
